<svg viewBox="0 0 26 26" fill="none" xmlns="http://www.w3.org/2000/svg"><path d="M18.2225 17.9551C19.0036 18.7361 20.2699 18.7361 21.0509 17.9551C21.832 17.174 21.832 15.9077 21.0509 15.1266L18.2225 17.9551ZM12.9997 9.90381L14.4139 8.4896C14.0388 8.11452 13.5301 7.90381 12.9997 7.90381C12.4692 7.90381 11.9605 8.11452 11.5855 8.4896L12.9997 9.90381ZM4.94844 15.1266C4.16739 15.9077 4.16739 17.174 4.94844 17.9551C5.72948 18.7361 6.99581 18.7361 7.77686 17.9551L4.94844 15.1266ZM21.0509 15.1266L14.4139 8.4896L11.5855 11.318L18.2225 17.9551L21.0509 15.1266ZM11.5855 8.4896L4.94844 15.1266L7.77686 17.9551L14.4139 11.318L11.5855 8.4896Z" fill="#FF4300"></path></svg>