<svg width="20" height="20" viewBox="0 0 25 20" fill="none" xmlns="http://www.w3.org/2000/svg"><path d="M24.5 2.60078C23.6 3.00078 22.7 3.30078 21.7 3.40078C22.7 2.80078 23.5 1.80078 23.9 0.700781C22.9 1.30078 21.9 1.70078 20.8 1.90078C19.9 0.900781 18.6 0.300781 17.2 0.300781C14.5 0.300781 12.3 2.50078 12.3 5.20078C12.3 5.60078 12.3 6.00078 12.4 6.30078C8.2 6.10078 4.6 4.10078 2.2 1.10078C1.7 1.90078 1.5 2.70078 1.5 3.60078C1.5 5.30078 2.4 6.80078 3.7 7.70078C2.9 7.70078 2.1 7.50078 1.5 7.10078C1.5 7.10078 1.5 7.10078 1.5 7.20078C1.5 9.60078 3.2 11.6008 5.4 12.0008C5 12.1008 4.6 12.2008 4.1 12.2008C3.8 12.2008 3.5 12.2008 3.2 12.1008C3.8 14.1008 5.6 15.5008 7.8 15.5008C6.1 16.8008 4 17.6008 1.7 17.6008C1.3 17.6008 0.9 17.6008 0.5 17.5008C2.7 18.9008 5.3 19.7008 8 19.7008C17.1 19.7008 22 12.2008 22 5.70078C22 5.50078 22 5.30078 22 5.10078C23 4.40078 23.8 3.50078 24.5 2.60078Z"></path></svg>